# xmcd CD database file generated by OrangeCD 6.2
#
# Track frame offsets:
#	150
#	17028
#	33414
#	48497
#	60312
#	77613
#	91480
#	105488
#	117064
#	131799
#	142933
#	156345
#	172845
#	192748
#	206397
#	220479
#	239391
#	252131
#	267604
#	281853
#
# Disc length: 3965 seconds
#
# Revision: 0
# Processed by: cddbd v1.5.2PL0 Copyright (c) Steve Scherf et al.
# Submitted via: OrangeCD 6.2
#
DISCID=210f7b14
DTITLE=Reba McEntire - Love Collection 
DYEAR=2005
DGENRE=
TTITLE0=Why Not Tonight
TTITLE1=You Can Take The Wings Off Me
TTITLE2=Whoever's In New England
TTITLE3=I'll Believe It When I Feel It
TTITLE4=I've Seen Better Days
TTITLE5=Little Rock
TTITLE6=If Only You Knew
TTITLE7=One Thin Dime
TTITLE8=Don't Touch Me There
TTITLE9=To Make That Same Mistake Again
TTITLE10=Cathy's Clown
TTITLE11='Til Love Comes Again
TTITLE12=It Always Rains On Sunday
TTITLE13=Am I The Only One Who Cares
TTITLE14=Somebody Up There Likes Me
TTITLE15=You Must Really Love Me
TTITLE16=Say The Word
TTITLE17=Little Girl
TTITLE18=Walk On
TTITLE19=A New Love
EXTD=
EXTT0=
EXTT1=
EXTT2=
EXTT3=
EXTT4=
EXTT5=
EXTT6=
EXTT7=
EXTT8=
EXTT9=
EXTT10=
EXTT11=
EXTT12=
EXTT13=
EXTT14=
EXTT15=
EXTT16=
EXTT17=
EXTT18=
EXTT19=
PLAYORDER=
